<svg width="76" height="28" viewBox="0 0 76 28" fill="none" xmlns="http://www.w3.org/2000/svg">
<path d="M20.9114 27C20.8634 27 20.7074 27 20.4434 27C19.8674 26.976 18.7994 26.952 17.2394 26.928C15.6794 26.88 13.6514 26.868 11.1554 26.892L1.61539 27C1.13539 27 0.859391 26.856 0.787391 26.568C0.739391 26.28 0.835391 25.932 1.07539 25.524C1.31539 25.092 1.74739 24.372 2.37139 23.364C3.01939 22.356 3.78739 21.168 4.67539 19.8C5.56339 18.408 6.49939 16.944 7.48339 15.408C8.49139 13.872 9.48739 12.36 10.4714 10.872C11.4554 9.36 12.3674 7.968 13.2074 6.696C14.0714 5.424 14.7794 4.368 15.3314 3.528C15.9074 2.688 16.2674 2.184 16.4114 2.016H9.06739C7.86739 2.016 6.85939 2.316 6.04339 2.916C5.22739 3.492 4.56739 4.2 4.06339 5.04C3.55939 5.88 3.17539 6.66 2.91139 7.38C2.88739 7.476 2.82739 7.572 2.73139 7.668C2.65939 7.74 2.52739 7.764 2.33539 7.74C2.16739 7.716 2.05939 7.644 2.01139 7.524C1.96339 7.404 1.93939 7.296 1.93939 7.2C1.93939 7.128 1.95139 6.864 1.97539 6.408C1.99939 5.928 2.02339 5.376 2.04739 4.752C2.07139 4.104 2.09539 3.504 2.11939 2.952C2.14339 2.4 2.16739 2.004 2.19139 1.764C2.21539 1.14 2.53939 0.827998 3.16339 0.827998C3.28339 0.827998 3.60739 0.839998 4.13539 0.864C4.66339 0.887999 5.50339 0.911999 6.65539 0.935999C7.80739 0.935999 9.39139 0.935999 11.4074 0.935999H20.7314C21.1394 0.935999 21.4034 1.092 21.5234 1.404C21.6434 1.716 21.5834 2.052 21.3434 2.412C21.2714 2.532 21.0074 2.94 20.5514 3.636C20.0954 4.308 19.5074 5.196 18.7874 6.3C18.0914 7.38 17.3114 8.592 16.4474 9.936C15.5834 11.256 14.6834 12.624 13.7474 14.04C12.8354 15.432 11.9354 16.8 11.0474 18.144C10.1594 19.488 9.34339 20.712 8.59939 21.816C7.87939 22.92 7.27939 23.832 6.79939 24.552C6.31939 25.272 6.01939 25.704 5.89939 25.848H15.5114C16.4954 25.848 17.3114 25.62 17.9594 25.164C18.6074 24.708 19.1354 24.144 19.5434 23.472C19.9514 22.8 20.2754 22.14 20.5154 21.492C20.7554 20.82 20.9474 20.28 21.0914 19.872C21.1634 19.656 21.3794 19.548 21.7394 19.548C21.9074 19.548 22.0034 19.608 22.0274 19.728C22.0754 19.824 22.0994 19.932 22.0994 20.052C22.0994 20.124 22.0874 20.436 22.0634 20.988C22.0394 21.54 22.0154 22.176 21.9914 22.896C21.9674 23.616 21.9314 24.288 21.8834 24.912C21.8594 25.512 21.8474 25.908 21.8474 26.1C21.8234 26.7 21.5114 27 20.9114 27ZM24.9791 27C24.6671 27 24.5111 26.808 24.5111 26.424C24.5111 26.112 24.6671 25.956 24.9791 25.956C26.3231 25.956 27.2231 25.788 27.6791 25.452C28.1591 25.116 28.3991 24.552 28.3991 23.76V4.032C28.3991 3.312 28.1831 2.772 27.7511 2.412C27.3191 2.052 26.4551 1.872 25.1591 1.872C24.8471 1.872 24.6911 1.692 24.6911 1.332C24.6911 1.02 24.8471 0.864 25.1591 0.864C25.3511 0.864 26.2631 0.875999 27.8951 0.899999C29.5511 0.923999 31.9751 0.935999 35.1671 0.935999C38.1911 0.935999 40.4831 0.923999 42.0431 0.899999C43.6031 0.875999 44.4911 0.864 44.7071 0.864C45.2591 0.864 45.5471 1.14 45.5711 1.692C45.6191 1.908 45.6551 2.268 45.6791 2.772C45.7031 3.252 45.7271 3.768 45.7511 4.32C45.7751 4.872 45.7871 5.364 45.7871 5.796C45.8111 6.228 45.8231 6.504 45.8231 6.624C45.8231 6.72 45.7991 6.828 45.7511 6.948C45.7031 7.044 45.5951 7.092 45.4271 7.092C45.2591 7.092 45.1271 7.08 45.0311 7.056C44.9591 7.008 44.8871 6.9 44.8151 6.732C44.5271 6.084 44.1551 5.4 43.6991 4.68C43.2671 3.936 42.6791 3.3 41.9351 2.772C41.2151 2.244 40.2671 1.98 39.0911 1.98H32.7551V13.068H35.0591C36.0671 13.068 36.8351 12.852 37.3631 12.42C37.8911 11.988 38.2751 11.484 38.5151 10.908C38.7791 10.332 38.9951 9.84 39.1631 9.432C39.2351 9.24 39.2951 9.108 39.3431 9.036C39.4151 8.94 39.5471 8.892 39.7391 8.892C39.9071 8.892 40.0151 8.952 40.0631 9.072C40.1351 9.192 40.1711 9.312 40.1711 9.432C40.1711 9.624 40.1591 9.972 40.1351 10.476C40.1351 10.956 40.1231 11.484 40.0991 12.06C40.0991 12.636 40.0991 13.164 40.0991 13.644C40.0991 14.1 40.0991 14.652 40.0991 15.3C40.1231 15.924 40.1351 16.5 40.1351 17.028C40.1591 17.532 40.1711 17.868 40.1711 18.036C40.1711 18.396 40.0271 18.576 39.7391 18.576C39.4751 18.576 39.2951 18.42 39.1991 18.108C39.0311 17.652 38.8151 17.124 38.5511 16.524C38.2871 15.9 37.8911 15.36 37.3631 14.904C36.8351 14.424 36.0671 14.184 35.0591 14.184H32.7551V25.128C32.7551 25.584 32.9951 25.812 33.4751 25.812H38.3351C39.4871 25.812 40.4591 25.608 41.2511 25.2C42.0431 24.768 42.6911 24.24 43.1951 23.616C43.7231 22.968 44.1311 22.332 44.4191 21.708C44.7071 21.06 44.9231 20.52 45.0671 20.088C45.1391 19.872 45.2111 19.752 45.2831 19.728C45.3791 19.704 45.5111 19.704 45.6791 19.728C45.7031 19.728 45.7151 19.728 45.7151 19.728C45.9071 19.752 46.0151 19.812 46.0391 19.908C46.0631 20.004 46.0751 20.112 46.0751 20.232C46.0751 20.328 46.0631 20.628 46.0391 21.132C46.0391 21.636 46.0271 22.224 46.0031 22.896C46.0031 23.544 45.9911 24.156 45.9671 24.732C45.9671 25.284 45.9671 25.668 45.9671 25.884C45.9671 26.196 45.8711 26.46 45.6791 26.676C45.5111 26.892 45.2591 27 44.9231 27C44.7551 27 44.3831 26.988 43.8071 26.964C43.2311 26.94 42.2831 26.928 40.9631 26.928C39.6431 26.904 37.7951 26.892 35.4191 26.892C32.4911 26.892 30.0791 26.916 28.1831 26.964C26.3111 26.988 25.2431 27 24.9791 27ZM70.2567 27.108C69.6087 27.132 69.1287 27.108 68.8167 27.036C68.5287 26.964 68.2887 26.772 68.0967 26.46C67.7847 25.98 67.3167 25.248 66.6927 24.264C66.0927 23.256 65.3847 22.104 64.5687 20.808C63.7527 19.488 62.8887 18.108 61.9767 16.668C61.0887 15.204 60.2007 13.764 59.3127 12.348C58.4247 10.932 57.5967 9.624 56.8287 8.424C56.0847 7.2 55.4487 6.18 54.9207 5.364C54.3927 4.524 54.0447 3.984 53.8767 3.744V21.096C53.8767 22.92 54.2247 24.192 54.9207 24.912C55.6407 25.608 56.4807 25.956 57.4407 25.956C57.5607 25.956 57.6687 26.004 57.7647 26.1C57.8847 26.172 57.9447 26.292 57.9447 26.46C57.9447 26.628 57.8847 26.76 57.7647 26.856C57.6687 26.952 57.5607 27 57.4407 27C57.2007 27 56.7087 26.988 55.9647 26.964C55.2207 26.916 54.3207 26.892 53.2647 26.892C52.0167 26.892 51.0687 26.916 50.4207 26.964C49.7967 26.988 49.3527 27 49.0887 27C48.7767 27 48.6207 26.82 48.6207 26.46C48.6207 26.124 48.7767 25.956 49.0887 25.956C50.0967 25.956 50.9127 25.596 51.5367 24.876C52.1847 24.156 52.5087 22.908 52.5087 21.132V4.356C52.5087 3.492 52.3167 2.868 51.9327 2.484C51.5487 2.076 50.8647 1.872 49.8807 1.872C49.5687 1.872 49.4127 1.692 49.4127 1.332C49.4127 1.02 49.5687 0.864 49.8807 0.864C50.0727 0.864 50.7087 0.875999 51.7887 0.899999C52.8927 0.923999 54.3327 0.935999 56.1087 0.935999C56.5167 0.935999 56.8167 0.995999 57.0087 1.116C57.2007 1.236 57.3807 1.44 57.5487 1.728C57.6447 1.896 57.9327 2.352 58.4127 3.096C58.8927 3.84 59.4927 4.776 60.2127 5.904C60.9567 7.032 61.7487 8.256 62.5887 9.576C63.4527 10.896 64.3167 12.228 65.1807 13.572C66.0447 14.916 66.8487 16.176 67.5927 17.352C68.3607 18.504 69.0087 19.488 69.5367 20.304C70.0647 21.096 70.4127 21.624 70.5807 21.888V6.768C70.5807 5.016 70.2447 3.768 69.5727 3.024C68.9247 2.256 68.0247 1.872 66.8727 1.872C66.5607 1.872 66.4047 1.692 66.4047 1.332C66.4047 1.02 66.5607 0.864 66.8727 0.864C67.1367 0.864 67.6527 0.887999 68.4207 0.935999C69.1887 0.959998 70.1007 0.971998 71.1567 0.971998C72.1887 0.971998 73.0767 0.959998 73.8207 0.935999C74.5647 0.887999 75.0567 0.864 75.2967 0.864C75.6567 0.864 75.8367 1.02 75.8367 1.332C75.8367 1.692 75.6567 1.872 75.2967 1.872C74.3847 1.872 73.5927 2.244 72.9207 2.988C72.2727 3.708 71.9487 4.968 71.9487 6.768V20.448C71.9487 21.72 71.9967 22.8 72.0927 23.688C72.1887 24.552 72.2607 25.368 72.3087 26.136C72.3327 26.4 72.2367 26.628 72.0207 26.82C71.8287 26.988 71.2407 27.084 70.2567 27.108Z" fill="white"/>
</svg>
